Coordinates
version=1
nRows=20
nColumns=30
inDegrees=yes

Units are S.I. units (second, meters, Newtons, ...)
Angles are in degrees.

endheader
time	floatyaw	floatroll	floatpitch	floatx	floaty	floatz	pro_sup_l	deviation_l	flexion_l	cmc_flexion_l	cmc_abduction_l	mp_flexion_l	ip_flexion_l	2mcp_flexion_l	2mcp_abduction_l	2pm_flexion_l	2md_flexion_l	3mcp_flexion_l	3mcp_abduction_l	3pm_flexion_l	3md_flexion_l	4mcp_flexion_l	4mcp_abduction_l	4pm_flexion_l	4md_flexion_l	5mcp_flexion_l	5mcp_abduction_l	5pm_flexion_l	5md_flexion_l
-1.495000	-0.679314	-3.115271	87.889519	-0.009798	-0.228982	0.004961	86.999242	-0.338136	-5.159169	26.278201	1.489866	-19.011108	-32.594038	16.474302	5.419175	34.082833	20.631581	4.354076	3.715922	37.977593	21.398248	-7.153733	-3.154429	56.168921	28.651061	-24.079988	-7.024479	65.467648	39.250790
-1.485000	-0.679314	-3.115271	87.889519	-0.009790	-0.228985	0.004963	87.016237	-0.339455	-5.176417	26.267673	1.519321	-19.014064	-32.637715	16.516772	5.422331	34.067502	20.618867	4.388724	3.719102	37.943263	21.419090	-7.140900	-3.165445	56.150635	28.702797	-24.002390	-7.000376	65.501920	39.179781
-1.475000	-0.679314	-3.115271	87.889519	-0.009774	-0.228976	0.004950	87.056261	-0.333302	-5.179327	26.230559	1.504586	-18.992148	-32.593451	16.494187	5.426950	34.114765	20.615371	4.369854	3.723806	37.976847	21.424630	-7.185769	-3.176776	56.213157	28.712832	-23.999588	-6.984686	65.627848	39.053694
-1.465000	-0.679314	-3.115271	87.889519	-0.009757	-0.228956	0.004928	87.113557	-0.321492	-5.166041	26.163270	1.444329	-18.947738	-32.452819	16.414630	5.432146	34.201842	20.620291	4.303842	3.729890	38.057795	21.416621	-7.284578	-3.188924	56.338610	28.686269	-24.065953	-6.976274	65.802416	38.902681
-1.455000	-0.679314	-3.115271	87.889519	-0.009745	-0.228929	0.004898	87.176241	-0.306736	-5.141729	26.070824	1.355753	-18.889189	-32.235417	16.309113	5.437728	34.289495	20.632042	4.215827	3.737634	38.151042	21.402613	-7.413362	-3.202568	56.488856	28.640837	-24.171571	-6.972495	65.968718	38.766822
-1.445000	-0.679314	-3.115271	87.889519	-0.009743	-0.228904	0.004860	87.229176	-0.292406	-5.115671	25.963645	1.269976	-18.826758	-31.979501	16.218257	5.444714	34.339676	20.648710	4.137843	3.747265	38.222567	21.391763	-7.536082	-3.217738	56.619228	28.597709	-24.276938	-6.970081	66.077782	38.683568
-1.435000	-0.679314	-3.115271	87.889519	-0.009750	-0.228885	0.004818	87.258869	-0.282095	-5.097066	25.853913	1.220546	-18.769164	-31.727470	16.175884	5.455110	34.331032	20.668054	4.096288	3.758301	38.251149	21.389843	-7.617492	-3.233282	56.693271	28.572374	-24.349526	-6.965532	66.105366	38.675775
-1.425000	-0.679314	-3.115271	87.889519	-0.009765	-0.228876	0.004773	87.258796	-0.278450	-5.091507	25.752475	1.229135	-18.721521	-31.511732	16.196481	5.470534	34.265602	20.687382	4.103313	3.769194	38.232986	21.396444	-7.636207	-3.247030	56.694555	28.569474	-24.374296	-6.955599	66.058430	38.743408
-1.415000	-0.679314	-3.115271	87.889519	-0.009782	-0.228875	0.004730	87.232539	-0.281697	-5.099206	25.666545	1.295032	-18.684669	-31.345619	16.271042	5.490398	34.164988	20.703710	4.153701	3.777544	38.179918	21.406157	-7.592907	-3.256575	56.631912	28.583185	-24.355140	-6.938233	65.969638	38.862683
-1.405000	-0.679314	-3.115271	87.889519	-0.009800	-0.228878	0.004692	87.192560	-0.289044	-5.115199	25.598852	1.394310	-18.655958	-31.222791	16.372249	5.511075	34.059215	20.714353	4.227273	3.780872	38.113438	21.412776	-7.509989	-3.260243	56.535328	28.602173	-24.309478	-6.913692	65.882455	38.994803
-1.395000	-0.679314	-3.115271	87.889519	-0.009814	-0.228876	0.004662	87.154704	-0.295818	-5.131296	25.548940	1.489895	-18.631545	-31.125800	16.466303	5.526899	33.974359	20.717604	4.296175	3.777643	38.056680	21.413246	-7.422379	-3.257728	56.443315	28.615802	-24.260525	-6.884910	65.833619	39.101428
-1.385000	-0.679314	-3.115271	87.889519	-0.009824	-0.228865	0.004640	87.131038	-0.297894	-5.139469	25.516122	1.548246	-18.609537	-31.040127	16.526521	5.532548	33.924514	20.713155	4.335643	3.768054	38.026386	21.408545	-7.362955	-3.250121	56.387097	28.618288	-24.230063	-6.856682	65.841120	39.159611
-1.375000	-0.679314	-3.115271	87.889519	-0.009828	-0.228844	0.004625	87.124836	-0.293934	-5.135814	25.501897	1.554887	-18.592222	-30.966028	16.543554	5.525507	33.910254	20.702204	4.335023	3.754175	38.026968	21.401717	-7.348514	-3.239396	56.378704	28.609932	-24.231891	-6.833974	65.902123	39.169431
-1.365000	-0.679314	-3.115271	87.889519	-0.009826	-0.228817	0.004619	87.130488	-0.285961	-5.123267	25.509767	1.520935	-18.585508	-30.920563	16.528229	5.507304	33.922078	20.687387	4.304010	3.739288	38.048690	21.395650	-7.372494	-3.227716	56.407876	28.596730	-24.265973	-6.820190	65.999239	39.151895
-1.355000	-0.679314	-3.115271	87.889519	-0.009817	-0.228794	0.004623	87.138469	-0.277946	-5.111086	25.542571	1.476829	-18.595481	-30.928071	16.505640	5.482986	33.945945	20.672402	4.269839	3.726745	38.071270	21.392617	-7.407982	-3.216942	56.448332	28.589138	-24.315674	-6.816213	66.109990	39.138881
-1.345000	-0.679314	-3.115271	87.889519	-0.009801	-0.228783	0.004638	87.142326	-0.273444	-5.110588	25.599508	1.456195	-18.624310	-31.004858	16.502677	5.459201	33.968851	20.661231	4.265109	3.718980	38.072581	21.394997	-7.420082	-3.208504	56.470332	28.599074	-24.352114	-6.820610	66.215482	39.158664
-1.335000	-0.679314	-3.115271	87.889519	-0.009776	-0.228785	0.004659	87.142955	-0.273855	-5.128845	25.674662	1.478511	-18.668248	-31.146993	16.534321	5.441768	33.983461	20.657132	4.310869	3.717138	38.039800	21.405239	-7.382884	-3.203509	56.454685	28.634225	-24.347495	-6.830843	66.306989	39.221244
-1.325000	-0.679314	-3.115271	87.889519	-0.009745	-0.228791	0.004681	87.146904	-0.278261	-5.163576	25.757300	1.539783	-18.718725	-31.327522	16.595265	5.433672	33.990565	20.661778	4.403246	3.721195	37.977805	21.424053	-7.293782	-3.202789	56.402391	28.691439	-24.292796	-6.844658	66.389183	39.309374
-1.315000	-0.679314	-3.115271	87.889519	-0.009707	-0.228790	0.004701	87.159899	-0.284626	-5.202500	25.833605	1.615799	-18.765396	-31.504325	16.661686	5.434309	33.997691	20.674741	4.511957	3.730220	37.909073	21.448131	-7.177497	-3.206677	56.334608	28.753932	-24.208670	-6.860704	66.477090	39.381883
-1.305000	-0.679314	-3.115271	87.889519	-0.009669	-0.228772	0.004716	87.180757	-0.291288	-5.228483	25.889958	1.675732	-18.799458	-31.635295	16.703113	5.440370	34.013900	20.693519	4.593775	3.742572	37.863270	21.469884	-7.075490	-3.214692	56.281531	28.796404	-24.139104	-6.878059	66.585696	39.391337
